# ProBuilder 4.2.3
# https://unity3d.com/unity/features/worldbuilding/probuilder
# 20/04/2020 15:21:30

mtllib ./Cylinder.mtl
o Cylinder

g Cylinder
v 0.0453186 8.286651 0
v 0.1004815 8.286651 0.2773209
v 0.2575727 8.286651 0.5124283
v 0.4926767 8.286651 0.6695175
v 0.7700005 8.286651 0.724678
v 1.047323 8.286651 0.6695175
v 1.282427 8.286651 0.5124283
v 1.439518 8.286651 0.2773209
v 1.494681 8.286651 0
v 1.439518 8.286651 -0.2773209
v 1.282427 8.286651 -0.5124283
v 1.047324 8.286651 -0.6695175
v 0.7700005 8.286651 -0.724678
v 0.4926758 8.286651 -0.6695175
v 0.2575727 8.286651 -0.5124283
v 0.1004815 8.286651 -0.2773209
v -0.1600389 -0.1039213 0
v -0.1600389 1.103921 0
v -0.08924341 1.103921 0.3559036
v -0.08924341 -0.1039213 0.3559036
v 0.1123633 1.103921 0.6576385
v 0.1123633 -0.1039213 0.6576385
v 0.4140902 1.103921 0.8592453
v 0.4140897 -0.1039213 0.8592453
v 0.7700005 1.103921 0.9300308
v 0.77 -0.1039213 0.9300308
v 1.12591 1.103921 0.8592453
v 1.12591 -0.1039213 0.8592453
v 1.427636 1.103921 0.6576385
v 1.427636 -0.1039213 0.6576385
v 1.629244 1.103921 0.3559036
v 1.629244 -0.1039213 0.3559036
v 1.700039 1.103921 0
v 1.700039 -0.1039213 0
v 1.629244 1.103921 -0.3559036
v 1.629244 -0.1039213 -0.3559036
v 1.427636 1.103921 -0.6576385
v 1.427636 -0.1039213 -0.6576385
v 1.125911 1.103921 -0.8592453
v 1.12591 -0.1039213 -0.8592453
v 0.7700005 1.103921 -0.9300308
v 0.77 -0.1039213 -0.9300308
v 0.4140892 1.103921 -0.8592453
v 0.4140897 -0.1039213 -0.8592453
v 0.1123633 1.103921 -0.6576385
v 0.1123633 -0.1039213 -0.6576385
v -0.08924341 1.103921 -0.3559036
v -0.08924341 -0.1039213 -0.3559036
v 0.1004815 1.241425 0.2773209
v 0.0453186 1.241425 0
v 0.2575727 1.241425 0.5124283
v 0.4926767 1.241425 0.6695175
v 0.7700005 1.241425 0.724678
v 1.047323 1.241425 0.6695175
v 1.282427 1.241425 0.5124283
v 1.439518 1.241425 0.2773209
v 1.494681 1.241425 0
v 1.439518 1.241425 -0.2773209
v 1.282427 1.241425 -0.5124283
v 1.047324 1.241425 -0.6695175
v 0.7700005 1.241425 -0.724678
v 0.4926758 1.241425 -0.6695175
v 0.2575727 1.241425 -0.5124283
v 0.1004815 1.241425 -0.2773209

vt -0.0453186 0
vt -0.1004815 0.2773209
vt -0.2575727 0.5124283
vt -0.4926767 0.6695175
vt -0.7700005 0.724678
vt -1.047323 0.6695175
vt -1.282427 0.5124283
vt -1.439518 0.2773209
vt -1.494681 0
vt -1.439518 -0.2773209
vt -1.282427 -0.5124283
vt -1.047324 -0.6695175
vt -0.7700005 -0.724678
vt -0.4926758 -0.6695175
vt -0.2575727 -0.5124283
vt -0.1004815 -0.2773209
vt -0.03122262 -0.1470431
vt -0.03122262 1.002622
vt 0.331654 1.002623
vt 0.331654 -0.147043
vt 0.2463452 -0.1822933
vt 0.2463452 0.9673723
vt 0.6092353 0.967372
vt 0.6092353 -0.1822936
vt 0.4587895 -0.2474344
vt 0.4587895 0.902231
vt 0.8216729 0.9022307
vt 0.8216726 -0.2474347
vt 0.573749 -0.3325445
vt 0.5737494 0.8171207
vt 0.9366306 0.8171214
vt 0.9366301 -0.3325438
vt 0.5737843 -0.4246511
vt 0.5737848 0.7250152
vt 0.936665 0.7250144
vt 0.9366655 -0.4246519
vt 0.4587924 -0.5097674
vt 0.458792 0.6398977
vt 0.821675 0.6398979
vt 0.821675 -0.5097672
vt 0.2463313 -0.574903
vt 0.2463313 0.5747629
vt 0.609222 0.5747632
vt 0.609222 -0.5749027
vt -0.03120986 -0.6101555
vt -0.03120986 0.5395101
vt 0.3316666 0.53951
vt 0.3316666 -0.6101555
vt -0.3316666 -0.6101559
vt -0.3316666 0.5395096
vt 0.03120986 0.5395097
vt 0.03120986 -0.6101559
vt -0.6092219 -0.5749043
vt -0.6092219 0.5747613
vt -0.2463312 0.574761
vt -0.2463312 -0.5749045
vt -0.8216748 -0.5097672
vt -0.8216748 0.6398979
vt -0.4587927 0.6398975
vt -0.4587923 -0.5097674
vt -0.9366622 -0.4246563
vt -0.9366627 0.7250087
vt -0.5737815 0.7250098
vt -0.573781 -0.4246552
vt -0.9366325 -0.3325405
vt -0.936633 0.817126
vt -0.5737509 0.8171249
vt -0.5737513 -0.3325415
vt -0.8216727 -0.2474346
vt -0.8216723 0.9022307
vt -0.4587897 0.902231
vt -0.4587897 -0.2474343
vt -0.6092353 -0.1822933
vt -0.6092353 0.9673727
vt -0.2463452 0.967373
vt -0.2463452 -0.182293
vt -0.331654 -0.1470429
vt -0.331654 1.002623
vt 0.03122262 1.002623
vt 0.03122262 -0.147043
vt 0.2915954 7.901143
vt 0.2915954 1.195259
vt 0.008841381 1.195259
vt 0.008841381 7.901144
vt 0.2864092 1.160008
vt 0.569169 1.160008
vt 0.2864092 7.865893
vt 0.569169 7.865893
vt 0.4988528 1.094867
vt 0.7816088 1.094868
vt 0.4988528 7.800751
vt 0.7816088 7.800752
vt 0.6138158 7.71564
vt 0.8965721 7.715639
vt 0.8965721 1.009757
vt 0.6138158 1.009758
vt 0.6138434 7.623539
vt 0.8965988 7.62354
vt 0.8965988 0.9176509
vt 0.6138434 0.91765
vt 0.7816119 7.538416
vt 0.7816119 0.8325345
vt 0.4988563 0.8325348
vt 0.4988563 7.538416
vt 0.569157 7.473286
vt 0.569157 0.7673988
vt 0.2863971 0.767399
vt 0.2863971 7.473286
vt 0.008848615 7.438031
vt 0.2916027 7.438031
vt 0.2916027 0.7321463
vt 0.008848615 0.7321463
vt -0.008848615 7.438031
vt -0.008848615 0.732146
vt -0.2916027 0.732146
vt -0.2916027 7.438031
vt -0.2863971 7.473282
vt -0.2863971 0.7673973
vt -0.5691569 0.7673971
vt -0.5691569 7.473282
vt -0.4988569 7.538416
vt -0.4988569 0.8325346
vt -0.7816117 0.8325345
vt -0.7816117 7.538416
vt -0.6138408 7.623527
vt -0.6138408 0.9176452
vt -0.896597 0.9176457
vt -0.896597 7.623528
vt -0.6138166 7.715652
vt -0.6138166 1.009761
vt -0.8965738 1.009761
vt -0.8965738 7.715651
vt -0.4988529 7.800751
vt -0.4988529 1.094867
vt -0.7816082 1.094868
vt -0.7816082 7.800751
vt -0.2864092 7.865896
vt -0.2864092 1.160008
vt -0.569169 1.160009
vt -0.569169 7.865896
vt -0.008841381 7.901145
vt -0.008841381 1.195259
vt -0.2915954 1.195259
vt -0.2915954 7.901145

vn 0 1 0
vn -1 0 0
vn -0.9238812 0 0.3826794
vn -0.7071112 5.590678E-08 0.7071023
vn -0.3826709 1.510724E-07 0.9238847
vn 1.291406E-07 3.925854E-08 1
vn 0.3826715 1.510727E-07 0.9238845
vn 0.7071108 5.590682E-08 0.7071028
vn 0.9238811 0 0.3826798
vn 1 0 0
vn 0.9238811 0 -0.3826798
vn 0.7071112 0 -0.7071024
vn 0.3826718 -9.516575E-08 -0.9238843
vn 1.215441E-07 -3.925844E-08 -1
vn -0.3826712 -9.516559E-08 -0.9238846
vn -0.7071117 0 -0.7071019
vn -0.9238812 0 -0.3826794
vn -0.5140291 0.8309277 0.2129161
vn -0.5563767 0.8309302 4.535123E-07
vn -0.3934198 0.8309307 0.3934147
vn -0.2129073 0.8309324 0.5140252
vn -2.754803E-06 0.8309265 0.5563822
vn 0.2129121 0.8309323 0.5140233
vn 0.3934187 0.8309302 0.3934168
vn 0.5140274 0.8309288 0.2129159
vn 0.5563764 0.8309304 1.686616E-07
vn 0.5140268 0.8309293 -0.2129151
vn 0.3934181 0.8309312 -0.3934153
vn 0.2129113 0.8309328 -0.5140228
vn -2.728567E-06 0.8309265 -0.5563822
vn -0.2129104 0.8309304 -0.5140271
vn -0.3934179 0.8309307 -0.3934166
vn -0.5140277 0.8309289 -0.2129151

usemtl ProBuilderDefault
f 15/15/1 13/13/1 14/14/1
f 1/1/1 15/15/1 16/16/1
f 2/2/1 15/15/1 1/1/1
f 3/3/1 4/4/1 2/2/1
f 15/15/1 2/2/1 4/4/1
f 5/5/1 6/6/1 4/4/1
f 15/15/1 4/4/1 6/6/1
f 13/13/1 15/15/1 6/6/1
f 13/13/1 6/6/1 7/7/1
f 13/13/1 7/7/1 8/8/1
f 13/13/1 8/8/1 12/12/1
f 11/11/1 12/12/1 10/10/1
f 12/12/1 8/8/1 10/10/1
f 9/9/1 10/10/1 8/8/1
f 17/17/2 20/20/3 19/19/3
f 19/19/3 18/18/2 17/17/2
f 20/21/3 22/24/4 21/23/4
f 21/23/4 19/22/3 20/21/3
f 21/26/4 22/25/4 24/28/5
f 24/28/5 23/27/5 21/26/4
f 26/32/6 25/31/6 23/30/5
f 23/30/5 24/29/5 26/32/6
f 28/36/7 27/35/7 25/34/6
f 25/34/6 26/33/6 28/36/7
f 28/37/7 30/40/8 29/39/8
f 29/39/8 27/38/7 28/37/7
f 32/44/9 31/43/9 29/42/8
f 29/42/8 30/41/8 32/44/9
f 34/48/10 33/47/10 31/46/9
f 31/46/9 32/45/9 34/48/10
f 34/49/10 36/52/11 35/51/11
f 35/51/11 33/50/10 34/49/10
f 36/53/11 38/56/12 37/55/12
f 37/55/12 35/54/11 36/53/11
f 38/57/12 40/60/13 39/59/13
f 39/59/13 37/58/12 38/57/12
f 40/61/13 42/64/14 41/63/14
f 41/63/14 39/62/13 40/61/13
f 42/65/14 44/68/15 43/67/15
f 43/67/15 41/66/14 42/65/14
f 44/69/15 46/72/16 45/71/16
f 45/71/16 43/70/15 44/69/15
f 46/73/16 48/76/17 47/75/17
f 47/75/17 45/74/16 46/73/16
f 48/77/17 17/80/2 18/79/2
f 18/79/2 47/78/17 48/77/17
f 1/84/2 50/83/2 49/82/3
f 49/82/3 2/81/3 1/84/2
f 50/83/19 18/18/19 19/19/18
f 19/19/18 49/82/18 50/83/19
f 49/85/18 19/22/18 21/23/20
f 21/23/20 51/86/20 49/85/18
f 2/87/3 49/85/3 51/86/4
f 51/86/4 3/88/4 2/87/3
f 51/89/20 21/26/20 23/27/21
f 23/27/21 52/90/21 51/89/20
f 3/91/4 51/89/4 52/90/5
f 52/90/5 4/92/5 3/91/4
f 4/93/5 52/96/5 53/95/6
f 53/95/6 5/94/6 4/93/5
f 52/96/21 23/30/21 25/31/22
f 25/31/22 53/95/22 52/96/21
f 5/97/6 53/100/6 54/99/7
f 54/99/7 6/98/7 5/97/6
f 53/100/22 25/34/22 27/35/23
f 27/35/23 54/99/23 53/100/22
f 6/104/7 54/103/7 55/102/8
f 55/102/8 7/101/8 6/104/7
f 54/103/23 27/38/23 29/39/24
f 29/39/24 55/102/24 54/103/23
f 56/106/9 8/105/9 7/108/8
f 7/108/8 55/107/8 56/106/9
f 31/43/25 56/106/25 55/107/24
f 55/107/24 29/42/24 31/43/25
f 9/110/10 8/109/9 56/112/9
f 56/112/9 57/111/10 9/110/10
f 57/111/26 56/112/25 31/46/25
f 31/46/25 33/47/26 57/111/26
f 10/113/11 9/116/10 57/115/10
f 57/115/10 58/114/11 10/113/11
f 58/114/27 57/115/26 33/50/26
f 33/50/26 35/51/27 58/114/27
f 59/118/12 11/117/12 10/120/11
f 10/120/11 58/119/11 59/118/12
f 37/55/28 59/118/28 58/119/27
f 58/119/27 35/54/27 37/55/28
f 60/122/13 12/121/13 11/124/12
f 11/124/12 59/123/12 60/122/13
f 39/59/29 60/122/29 59/123/28
f 59/123/28 37/58/28 39/59/29
f 13/125/14 12/128/13 60/127/13
f 60/127/13 61/126/14 13/125/14
f 61/126/30 60/127/29 39/62/29
f 39/62/29 41/63/30 61/126/30
f 14/129/15 13/132/14 61/131/14
f 61/131/14 62/130/15 14/129/15
f 62/130/31 61/131/30 41/66/30
f 41/66/30 43/67/31 62/130/31
f 63/134/16 15/133/16 14/136/15
f 14/136/15 62/135/15 63/134/16
f 45/71/32 63/134/32 62/135/31
f 62/135/31 43/70/31 45/71/32
f 15/140/16 63/139/16 64/138/17
f 64/138/17 16/137/17 15/140/16
f 63/139/32 45/74/32 47/75/33
f 47/75/33 64/138/33 63/139/32
f 16/144/17 64/143/17 50/142/2
f 50/142/2 1/141/2 16/144/17
f 64/143/33 47/78/33 18/79/19
f 18/79/19 50/142/19 64/143/33

