# ProBuilder 4.2.3
# https://unity3d.com/unity/features/worldbuilding/probuilder
# 20/04/2020 15:21:29

mtllib ./Garlanda_(2).mtl
o Garlanda (2)

g Garlanda (2)
v -0.1660492 0.1277547 0.06132914
v -0.25 0.25 0.5
v 0.4716004 0.2500005 1.085252
v 0.6482972 0.1277557 0.7699382
v 2.950611 0.2142806 1.930843
v 2.940159 0.09203633 1.646507
v 4.270627 0.054772 1.295122
v 4.422212 0.1770172 1.529579
v 5.784745 0.01750501 0.2377579
v 5.774577 0.1397502 0.6187358
v 1.428388 0.1098962 1.320914
v 1.306211 0.232141 1.588526
v 1.309011 -0.03050423 1.580642
v 2.820768 -0.04836527 1.906228
v 0.5289201 -0.01264382 1.029673
v -0.2854264 -0.01264477 0.3210657
v 4.151221 -0.08562871 1.554845
v 5.66534 -0.1228957 0.4974863

vt 0.1874895 0.08121828
vt 0.2933502 0.5320145
vt -0.4148235 1.133443
vt -0.6117045 0.806789
vt -2.947851 1.703228
vt -2.918426 1.395011
vt -4.226729 0.9782
vt -4.395554 1.231923
vt -5.716427 -0.1055242
vt -5.725485 0.2937275
vt -0.4270529 1.130769
vt -0.6205907 0.8021401
vt -1.39399 1.357479
vt -1.25431 1.64356
vt -2.890193 1.735156
vt -2.881533 2.043634
vt 1.432374 1.19552
vt 2.93565 1.558759
vt 1.30023 1.485278
vt 2.803493 1.848511
vt 0.6591462 0.7317143
vt 1.407419 1.32545
vt 0.5072073 1.011607
vt 1.25548 1.605336
vt -0.1167135 -0.002209536
vt 0.6552266 0.7523734
vt -0.2745902 0.2743784
vt 0.4973499 1.02896
vt 2.868579 1.057824
vt 4.181712 0.6446846
vt 2.778172 1.36319
vt 4.09129 0.9500535
vt 3.646596 -0.2130118
vt 4.968357 -1.503327
vt 3.615406 0.103932
vt 4.937167 -1.186379

vn 0.6493891 0.07787219 -0.7564586
vn 0.1868431 0.9549962 -0.2303735
vn 0.2043692 0.9427148 -0.2636704
vn 0.6168761 0.06790645 -0.7841254
vn 0.004508543 0.9186231 -0.3951093
vn -0.03912679 0.05711262 -0.9976007
vn -0.4202251 0.1410746 -0.8963865
vn -0.1456435 0.9155406 -0.3749311
vn -0.5564123 0.209189 -0.8041427
vn -0.1981594 0.9249293 -0.3244052
vn 0.3895175 0.0414697 -0.920085
vn 0.1538432 0.9217085 -0.3560697
vn 0.164425 -0.8973638 -0.4095152
vn -0.03902399 -0.8714054 -0.4890089
vn 0.271021 -0.8933808 -0.3583551
vn 0.2990877 -0.8901718 -0.3437161
vn -0.2930418 -0.77823 -0.5554139
vn -0.4175861 -0.7050886 -0.5731247

usemtl ProBuilderDefault
f 3/3/3 4/4/4 1/1/1 2/2/2
f 8/8/8 7/7/7 6/6/6 5/5/5
f 10/10/10 9/9/9 7/7/7 8/8/8
f 3/11/3 12/14/12 11/13/11 4/12/4
f 5/16/5 6/15/6 11/13/11 12/14/12
f 14/20/14 13/19/13 11/17/11 6/18/6
f 13/24/13 15/23/15 4/21/4 11/22/11
f 15/28/15 16/27/16 1/25/1 4/26/4
f 17/32/17 14/31/14 6/29/6 7/30/7
f 18/36/18 17/35/17 7/33/7 9/34/9

