# ProBuilder 4.2.3
# https://unity3d.com/unity/features/worldbuilding/probuilder
# 20/04/2020 15:21:30

mtllib ./SupportPillarCross_(1).mtl
o SupportPillarCross (1)

g SupportPillarCross (1)
v 1.025952 -0.001337237 -0.8979328
v 0.5839698 -0.0008113498 -0.03320869
v 1.028353 1.366894 -0.8979352
v 0.5863714 1.367412 -0.03320991
v 9.718045 -1.949324E-05 -5.554337
v 9.701115 -3.362564E-05 -4.872931
v 9.720448 1.368216 -5.554337
v 9.703519 1.368188 -4.872931
v 2.230468 -0.0005446904 -3.058318
v 1.20778 -0.001183639 -1.949975
v 1.210182 1.367023 -1.949976
v 2.232862 1.367641 -3.058544
v 4.237862E-07 -1.360586E-06 0
v -0.01693378 1.960634E-05 -2.599237
v -0.327617 0.0008776843 0.00325574
v -0.3267916 0.0008916227 -2.595982
v -0.01453225 1.368269 -2.599237
v -0.3269088 1.369141 -2.595982
v 0.002399677 1.368238 -1.907349E-06
v -0.3277333 1.369113 0.003253456
v -0.326283 0.2458081 -1.055585
v -0.3259866 0.245808 -2.547246
v -0.3260283 1.125965 -2.547247
v -0.3263256 1.125944 -1.055587
v -0.8271191 1.125915 -1.055644
v -0.8270881 0.2457797 -1.055644
v -0.9490314 0.2457797 -1.439211
v -0.9490625 1.125922 -1.439212
v -1.490088 0.2457513 -1.804557
v -1.48998 0.2457512 -2.54736
v -1.49001 1.125908 -2.547362
v -1.490119 1.125901 -1.804558
v -1.209034 0.2457655 -1.703151
v -1.209065 1.125908 -1.703152
v 4.241716 -0.0002891664 -4.048274
v 4.241709 1.367897 -4.048271
v 1.971567 9.093451E-06 -3.735712
v 1.972739 1.368216 -3.735822
v 4.085135 -5.213203E-06 -4.776566
v 4.085128 1.368202 -4.776563
v 6.354629 -1.94701E-05 -5.3256
v 6.355827 1.368209 -5.3256
v 6.344619 -0.0001614111 -4.609254
v 6.345817 1.368039 -4.609254

vt 1.266478 -0.0005485626
vt 0.2953471 -2.267473E-05
vt 1.267573 1.367684
vt 0.2964412 1.368202
vt 5.794008 0.01679711
vt 5.112392 0.01678298
vt 5.794068 1.385035
vt 5.112452 1.385006
vt 3.729422 0.0004359623
vt 2.283063 -0.0008493936
vt 2.284126 1.367359
vt 3.730684 1.368623
vt 1.259089 -0.0005455335
vt 1.260154 1.367687
vt 4.274352E-07 -1.279733E-11
vt -0.01693377 -2.599237
vt -0.3276182 0.00325574
vt -0.3267928 -2.595982
vt -0.01037711 -2.832822E-05
vt -0.01277851 1.368221
vt 0.2994978 0.0008436882
vt 0.299615 1.369093
vt 0.01835482 -2.599229
vt 0.001422868 6.991762E-06
vt 0.3307326 -2.595973
vt 0.331557 0.003262355
vt 0.002399579 1.368238
vt -0.3277495 1.369113
vt -0.3276332 0.0008776847
vt 0.003359777 -0.0004569544
vt -2.595878 -0.0004430159
vt -1.055482 0.2444755
vt -2.547142 0.2444747
vt -2.601146 0.0009158354
vt -2.601148 1.369166
vt -2.552404 0.2458322
vt -2.552406 1.125989
vt -2.595878 1.37034
vt 0.003357434 1.370311
vt -2.547143 1.127161
vt -1.055483 1.127139
vt 0.003682765 1.369141
vt 0.003684896 0.0009055223
vt -1.055158 1.125971
vt -1.055157 0.245836
vt -0.3264467 1.125945
vt -0.3264041 0.2458096
vt -0.8272402 1.125916
vt -0.8272092 0.2457812
vt -1.256615 0.2457955
vt -1.6591 0.2457954
vt -1.659109 1.125938
vt -1.256624 1.125931
vt -1.804342 0.245804
vt -2.547145 0.2458039
vt -2.547146 1.12596
vt -1.804342 1.125954
vt -0.3262718 -1.055585
vt -0.3259754 -2.547246
vt -0.9490202 -1.439211
vt -0.8270769 -1.055644
vt 0.3259642 -2.547288
vt 0.3262616 -1.055628
vt 0.827055 -1.055685
vt 0.9489985 -1.439253
vt 0.326238 0.2458114
vt 0.3262798 1.125968
vt 1.490232 0.2457546
vt 1.490262 1.125911
vt -1.489968 -2.54736
vt -1.490075 -1.804557
vt -1.209022 -1.703151
vt -1.575375 1.125909
vt -1.575349 0.2457669
vt -1.936643 0.2457512
vt -1.936669 1.125894
vt -2.228011 0.2457382
vt -2.228037 1.125888
vt 0.9490077 -1.439225
vt 1.20901 -1.703166
vt 1.490064 -1.804571
vt 1.489956 -2.547375
vt 5.15556 -0.0004186894
vt 2.954991 -0.0006543955
vt 2.95736 1.367531
vt 5.155552 1.367767
vt -0.8057013 1.367363
vt -0.8034222 -0.0008862005
vt -3.048815 -0.001062181
vt -3.049962 1.367145
vt -5.38275 -0.001194257
vt -5.382742 1.367013
vt 4.241716 -4.048274
vt 4.085135 -4.776566
vt 1.971567 -3.735712
vt 2.230468 -3.058318
vt 0.5839699 -0.03320853
vt 1.025952 -0.8979326
vt 1.20778 -1.949975
vt -1.028094 -0.8985208
vt -0.5861126 -0.03379579
vt -0.00214073 -0.0005880969
vt 0.0147912 -2.599823
vt -1.97248 -3.736408
vt -2.232603 -3.05913
vt -1.209923 -1.950562
vt -4.084869 -4.777149
vt -4.24145 -4.048857
vt -7.709596 -0.001137245
vt -7.710732 1.367091
vt -10.97359 -0.000828242
vt -10.97587 1.367407
vt 10.64232 1.368088
vt 10.64 -0.0001335992
vt 7.331975 -0.0002904405
vt 7.333132 1.36791
vt -6.355568 -5.326186
vt -6.345558 -4.60984
vt -9.720189 -5.554924
vt -9.703259 -4.873518
vt 6.344619 -4.609254
vt 6.354629 -5.325601
vt 9.701115 -4.872931
vt 9.718045 -5.554338

vn 0.8904284 -0.001562133 0.4551208
vn 0.9996899 -0.001755921 0.0248388
vn 0.7349703 -0.001231739 0.6780981
vn 0.735006 -0.001173923 0.6780596
vn 0.9853894 -0.001729485 0.1703084
vn -0.002683041 -0.9999964 9.413649E-06
vn -0.01050691 1.844153E-05 -0.9999448
vn -0.01046458 8.774463E-06 -0.9999453
vn 0.002793765 0.9999961 -6.504059E-06
vn 0.009860242 -1.589631E-05 0.9999514
vn -0.9999917 0.004073768 -0.0003175551
vn -0.9999931 0.003700107 -0.0002581442
vn -0.9999945 0.003326447 -0.0001987333
vn -0.9998564 -8.563195E-05 0.01694591
vn -0.9998487 -6.650231E-05 0.01738669
vn -0.9998411 -4.737267E-05 0.01782747
vn -0.9999931 -0.003684298 -0.0003172621
vn -0.9999905 -0.004302432 -0.0002583314
vn -0.9999879 -0.004920566 -0.0001994006
vn -0.9999992 -8.497204E-05 -0.001309942
vn -0.0001147358 1.348887E-06 1
vn -0.9529982 -3.358382E-05 0.3029761
vn -1 -3.53504E-05 -0.0001445977
vn 5.115082E-05 -1 -8.921902E-06
vn -4.29743E-05 1 1.413678E-05
vn 9.872721E-05 -1.34973E-06 -1
vn -0.712401 -2.45653E-05 0.7017727
vn -0.3393919 -1.067772E-05 0.940645
vn 0.4417844 -0.0003119888 0.8971212
vn 0.4416131 -0.0006244123 0.8972054
vn -0.4963346 0.0006130808 -0.8681311
vn -0.4964685 0.0003552396 -0.8680547
vn -0.4417961 0.0003060843 -0.8971155
vn -0.0002057457 -0.9999998 -0.0005400961
vn -0.000179744 -0.9999999 -0.0003512448
vn -0.0008810203 -0.9999993 -0.0003919649
vn -0.001347332 -0.9999991 -5.169868E-05
vn -0.000508683 -0.9999996 -0.000641078
vn 0.001202347 0.9999992 0.0001349551
vn 0.0009083433 0.9999995 0.0003919065
vn 0.000381879 0.9999996 0.000830919
vn 0.0005450587 0.9999996 0.000645282
vn 0.0001927988 0.9999999 0.0003775783
vn -0.2350782 0.0001032756 -0.9719765
vn -0.06785058 5.939977E-05 -0.9976955
vn 0.07828818 -0.0001372191 0.9969308
vn 0.2576828 -0.000113148 0.9662296

usemtl ProBuilderDefault
f 33/72/24 22/59/24 27/60/24
f 30/70/24 22/59/24 33/72/24
f 29/71/24 30/70/24 33/72/24
f 34/80/25 31/82/25 32/81/25
f 34/80/25 23/62/25 31/82/25
f 28/79/25 23/62/25 34/80/25
f 37/95/34 9/96/34 10/99/38
f 37/95/34 10/99/38 14/16/36
f 14/16/36 10/99/38 1/98/37
f 1/98/37 13/15/37 14/16/36
f 1/98/37 2/97/37 13/15/37
f 19/102/39 4/101/39 3/100/39
f 17/103/40 19/102/39 3/100/39
f 3/100/39 11/106/42 17/103/40
f 17/103/40 11/106/42 38/104/41
f 11/106/42 12/105/41 38/104/41
f 4/4/1 2/2/1 1/1/1
f 1/1/1 3/3/1 4/4/1
f 8/8/2 6/6/2 5/5/2
f 5/5/2 7/7/2 8/8/2
f 10/10/3 9/9/3 12/12/4
f 12/12/4 11/11/3 10/10/3
f 1/13/5 10/10/5 11/11/5
f 11/11/5 3/14/5 1/13/5
f 16/18/6 14/16/6 13/15/6
f 13/15/6 15/17/6 16/18/6
f 18/22/8 17/20/8 14/19/7
f 14/19/7 16/21/8 18/22/8
f 20/26/9 19/24/9 17/23/9
f 17/23/9 18/25/9 20/26/9
f 15/29/10 13/15/10 19/27/10
f 19/27/10 20/28/10 15/29/10
f 22/33/13 16/31/12 15/30/11
f 15/30/11 21/32/12 22/33/13
f 23/37/16 18/35/15 16/34/14
f 16/34/14 22/36/15 23/37/16
f 24/41/19 20/39/18 18/38/17
f 18/38/17 23/40/18 24/41/19
f 21/45/20 15/43/20 20/42/20
f 20/42/20 24/44/20 21/45/20
f 26/49/21 21/47/21 24/46/21
f 24/46/21 25/48/21 26/49/21
f 28/52/22 27/51/22 26/50/22
f 26/50/22 25/53/22 28/52/22
f 31/56/23 30/55/23 29/54/23
f 29/54/23 32/57/23 31/56/23
f 27/60/24 22/59/24 21/58/24
f 21/58/24 26/61/24 27/60/24
f 23/62/25 28/65/25 25/64/25
f 25/64/25 24/63/25 23/62/25
f 31/69/26 23/67/26 22/66/26
f 22/66/26 30/68/26 31/69/26
f 33/75/27 27/74/27 28/73/27
f 28/73/27 34/76/27 33/75/27
f 29/77/28 33/75/28 34/76/28
f 34/76/28 32/78/28 29/77/28
f 9/84/30 35/83/29 36/86/29
f 36/86/29 12/85/29 9/84/30
f 37/89/31 14/88/31 17/87/31
f 17/87/31 38/90/32 37/89/31
f 39/91/33 37/89/33 38/90/33
f 38/90/33 40/92/33 39/91/33
f 37/95/34 39/94/35 35/93/34
f 35/93/34 9/96/34 37/95/34
f 38/104/41 12/105/41 36/108/41
f 36/108/41 40/107/43 38/104/41
f 39/91/44 40/92/44 42/110/44
f 42/110/44 41/109/44 39/91/44
f 5/111/45 41/109/45 42/110/45
f 42/110/45 7/112/45 5/111/45
f 43/115/46 6/114/46 8/113/46
f 8/113/46 44/116/46 43/115/46
f 36/86/47 35/83/47 43/115/47
f 43/115/47 44/116/47 36/86/47
f 42/117/25 40/107/25 36/108/43
f 36/108/43 44/118/25 42/117/25
f 7/119/25 42/117/25 44/118/25
f 44/118/25 8/120/25 7/119/25
f 39/94/24 41/122/24 43/121/24
f 43/121/24 35/93/35 39/94/24
f 41/122/24 5/124/24 6/123/24
f 6/123/24 43/121/24 41/122/24

