# ProBuilder 4.2.3
# https://unity3d.com/unity/features/worldbuilding/probuilder
# 11/05/2020 19:41:29

mtllib ./throneFloor.mtl
o throneFloor

g Cube
v -5.5 0 -57.5
v -1.01 0 -57.5
v -5.5 0.25 -57.5
v -1.01 0.25 -57.5
v -5.5 0.25 -55.75
v -1.01 0.25 -55.75
v -5.5 0.5 -55.75
v -1.01 0.5 -55.75
v -1.01 0.5 -54
v -5.5 0.5 -54
v -1.01 0.75 -54
v -5.5 0.75 -54
v -1.01 0.75 -50.75
v -5.5 0.75 -50.75
v -1.01 0.75 -45.5
v -5.5 0.75 -45.5

vt 0 -0.64
vt -4.49 -0.64
vt 0 -0.39
vt -4.49 -0.39
vt 0 -2.25
vt 0 -4
vt -4.49 -4
vt -4.49 -2.25
vt 0 -0.14
vt -4.49 -0.14
vt 0 -2.178809
vt -4.49 -2.178809
vt -4.49 -0.5186135
vt 0 -0.5186135
vt -4.49 -0.4395566
vt 0 -0.4395566
vt -4.49 2.643664
vt 0 2.643664
vt -4.49 7.624252
vt 0 7.624252

vn 0 0 -1
vn 0 1 0

usemtl ProBuilderDefault
f 3/3/1 4/4/1 2/2/1 1/1/1
f 5/5/2 6/8/2 4/7/2 3/6/2
f 7/9/1 8/10/1 6/4/1 5/3/1
f 10/14/2 9/13/2 8/12/2 7/11/2
f 12/16/1 11/15/1 9/13/1 10/14/1
f 14/18/2 13/17/2 11/15/2 12/16/2
f 16/20/2 15/19/2 13/17/2 14/18/2

g Cube
v 0.5 5.5 -45.5
v -1 5.5 -45.5
v 0.5 5.5 -47
v -1 5.5 -47
v -1 1.5 -47
v -1 0 -45.5
v -1 0 -55.5
v 0.5 0 -55.5
v 0.5 1.5 -55.5
v -1 1.5 -55.5
v 0.5 1.5 -47
v 0.5 0 -45.5

vt -0.5 0
vt 1 0
vt -0.5 -1.5
vt 1 -1.5
vt -1.5 1.5
vt -1.5 5.5
vt 0 5.5
vt 0 0
vt -0.5 1.5
vt 1 1.5
vt -0.5 5.5
vt 1 5.5
vt 1.5 5.5
vt 1.5 1.5
vt 10 0
vt 10 1.5
vt -0.5 -10
vt 1 -10
vt -10 1.5
vt -10 0

vn 0 1 0
vn -1 0 0
vn 0 0 -1
vn 1 0 0

usemtl ProBuilderDefault
f 19/23/3 20/24/3 18/22/3 17/21/3
f 18/27/4 20/26/4 21/25/4 22/28/4
f 23/22/5 26/30/5 25/29/5 24/21/5
f 21/30/5 20/32/5 19/31/5 27/29/5
f 27/34/6 19/33/6 17/27/6 28/28/6
f 24/35/6 25/36/6 27/34/6 28/28/6
f 25/37/3 26/38/3 21/24/3 27/23/3
f 26/39/4 23/40/4 22/28/4 21/25/4

